<svg id="Group_347" data-name="Group 347" xmlns="http://www.w3.org/2000/svg" viewBox="0 0 60 58.604">
  <defs>
    <style>
      .cls-1 {
        fill: #ffb983;
      }
    </style>
  </defs>
  <path id="Path_430" data-name="Path 430" class="cls-1" d="M52.107,290.114H86.64a1.007,1.007,0,0,0,.014-2.014H52.107a1.007,1.007,0,1,0,0,2.014Z" transform="translate(-43.747 -246.647)"/>
  <path id="Path_431" data-name="Path 431" class="cls-1" d="M90.207,346.514h29.065a1.007,1.007,0,0,0,0-2.014H90.207a1.007,1.007,0,0,0,0,2.014Z" transform="translate(-76.365 -294.932)"/>
  <path id="Path_432" data-name="Path 432" class="cls-1" d="M52.107,65.614H86.654a1.007,1.007,0,1,0,0-2.014H52.107A1,1,0,0,0,51.1,64.607,1.02,1.02,0,0,0,52.107,65.614Z" transform="translate(-43.747 -54.449)"/>
  <path id="Path_433" data-name="Path 433" class="cls-1" d="M230.4,226.6h-11.4a1.007,1.007,0,0,0,0,2.014h11.4a1.007,1.007,0,0,0,0-2.014Z" transform="translate(-186.633 -193.996)"/>
  <path id="Path_434" data-name="Path 434" class="cls-1" d="M48.507,132.166H65.716a1,1,0,0,0,1.007-1.007V114.007A1,1,0,0,0,65.716,113H48.507a1,1,0,0,0-1.007,1.007v17.137A1.013,1.013,0,0,0,48.507,132.166Zm1.007-17.151H64.709v15.122H49.514Z" transform="translate(-40.665 -96.741)"/>
  <path id="Path_435" data-name="Path 435" class="cls-1" d="M59.022,4.906a1,1,0,0,0-1.007,1.007V47.986a8.64,8.64,0,0,1-8.633,8.633H10.647a8.64,8.64,0,0,1-8.633-8.633V2.014H49.568V43.4a1.007,1.007,0,1,0,2.014,0V1.007A1,1,0,0,0,50.576,0H1.007A1,1,0,0,0,0,1.007v46.95A10.66,10.66,0,0,0,10.647,58.6H49.353A10.66,10.66,0,0,0,60,47.957V5.914a.978.978,0,0,0-.288-.705A.884.884,0,0,0,59.022,4.906Z"/>
  <path id="Path_436" data-name="Path 436" class="cls-1" d="M230.4,173.8h-11.4a1.007,1.007,0,0,0,0,2.014h11.4a1.007,1.007,0,0,0,0-2.014Z" transform="translate(-186.633 -148.793)"/>
  <path id="Path_437" data-name="Path 437" class="cls-1" d="M230.4,124h-11.4a1.007,1.007,0,0,0,0,2.014h11.4a1,1,0,0,0,1.007-1.007A1.02,1.02,0,0,0,230.4,124Z" transform="translate(-186.633 -106.158)"/>
</svg>
