<svg id="Group_346" data-name="Group 346" xmlns="http://www.w3.org/2000/svg" viewBox="0 0 60.341 60.108">
  <defs>
    <style>
      .cls-1 {
        fill: #af68ff;
      }
    </style>
  </defs>
  <g id="Group_293" data-name="Group 293" transform="translate(0 0)">
    <path id="Path_424" data-name="Path 424" class="cls-1" d="M11.467,317.252a.89.89,0,0,0,.884-.884V293.893A2.394,2.394,0,0,0,9.959,291.5H2.392A2.394,2.394,0,0,0,0,293.893v22.464a.89.89,0,0,0,.884.884H11.467Zm-9.7-23.359a.629.629,0,0,1,.625-.625H9.947a.629.629,0,0,1,.625.625v21.591h-8.8Z" transform="translate(0 -257.143)"/>
    <path id="Path_425" data-name="Path 425" class="cls-1" d="M138.192,241.2a2.394,2.394,0,0,0-2.392,2.392v28.392a.89.89,0,0,0,.884.884h10.571a.89.89,0,0,0,.884-.884V243.592a2.394,2.394,0,0,0-2.392-2.392Zm8.179,2.392v27.52h-8.815v-27.52a.629.629,0,0,1,.625-.625h7.554A.631.631,0,0,1,146.371,243.592Z" transform="translate(-119.796 -212.772)"/>
    <path id="Path_426" data-name="Path 426" class="cls-1" d="M283.939,227.624V193.293a2.394,2.394,0,0,0-2.392-2.393h-7.554a2.394,2.394,0,0,0-2.392,2.393v34.32a.89.89,0,0,0,.884.884h10.583A.87.87,0,0,0,283.939,227.624Zm-1.768-.884h-8.815V193.293a.629.629,0,0,1,.625-.625h7.554a.629.629,0,0,1,.625.625l.012,33.448Z" transform="translate(-239.591 -168.4)"/>
    <path id="Path_427" data-name="Path 427" class="cls-1" d="M408.17,184.225h10.583a.89.89,0,0,0,.884-.884V143.093a2.394,2.394,0,0,0-2.393-2.393H409.69a2.394,2.394,0,0,0-2.392,2.393v40.248A.865.865,0,0,0,408.17,184.225Zm.884-41.132a.629.629,0,0,1,.625-.625h7.554a.629.629,0,0,1,.625.625v39.364h-8.815V143.093Z" transform="translate(-359.296 -124.116)"/>
    <path id="Path_428" data-name="Path 428" class="cls-1" d="M141.139,12.308a1.84,1.84,0,0,0,3.265-.471l3.017-9.075a1.843,1.843,0,0,0-.236-1.638,1.82,1.82,0,0,0-1.45-.79l-9.558-.342a1.842,1.842,0,0,0-1.685.955,1.82,1.82,0,0,0,.106,1.933l1,1.438a87.874,87.874,0,0,1-33.942,10.76.889.889,0,0,0-.79.978.879.879,0,0,0,.872.79h.094A89.232,89.232,0,0,0,137.32,5.366a.892.892,0,0,0,.271-1.261s-1.52-2.18-1.544-2.216a.075.075,0,0,1,.071-.118s9.523.342,9.558.342a.081.081,0,0,1,.071.106s-3.017,9.063-3.017,9.075a.084.084,0,0,1-.141.024L141.221,9.35a.88.88,0,0,0-1.19-.248,80.519,80.519,0,0,1-10.23,5.2.882.882,0,0,0,.684,1.626,84.306,84.306,0,0,0,9.746-4.879Z" transform="translate(-88.977 0.009)"/>
    <path id="Path_429" data-name="Path 429" class="cls-1" d="M28.441,132.351a.886.886,0,0,0-.118-1.768c-1.921.13-3.854.189-5.739.189a.89.89,0,0,0-.884.884v6.352a.89.89,0,0,0,.884.884A98.8,98.8,0,0,0,57.1,132.527a.888.888,0,0,0-.625-1.662,97.142,97.142,0,0,1-33,6.246v-4.585C25.106,132.527,26.779,132.457,28.441,132.351Z" transform="translate(-19.143 -115.19)"/>
  </g>
</svg>
