<svg id="calendar_1_" data-name="calendar (1)" xmlns="http://www.w3.org/2000/svg" viewBox="0 0 60 64.286">
  <defs>
    <style>
      .cls-1 {
        fill: #76e276;
      }
    </style>
  </defs>
  <path id="Path_416" data-name="Path 416" class="cls-1" d="M60.929,4.286h-7.5V1.071A1.07,1.07,0,0,0,52.357,0h-7.5a1.07,1.07,0,0,0-1.071,1.071V4.286H20.214V1.071A1.07,1.07,0,0,0,19.143,0h-7.5a1.07,1.07,0,0,0-1.071,1.071V4.286h-7.5A1.07,1.07,0,0,0,2,5.357V63.214a1.07,1.07,0,0,0,1.071,1.071H60.929A1.07,1.07,0,0,0,62,63.214V5.357A1.07,1.07,0,0,0,60.929,4.286Zm-15-2.143h5.357V8.571H45.929V2.143Zm-33.214,0h5.357V8.571H12.714V2.143ZM4.143,6.429h6.429V9.643a1.07,1.07,0,0,0,1.071,1.071h7.5a1.07,1.07,0,0,0,1.071-1.071V6.429H43.786V9.643a1.07,1.07,0,0,0,1.071,1.071h7.5a1.07,1.07,0,0,0,1.071-1.071V6.429h6.429v9.643H4.143Zm0,55.714V18.214H59.857V62.143Z" transform="translate(-2 0)"/>
  <path id="Path_417" data-name="Path 417" class="cls-1" d="M41.359,23H11V50.828H53.728V23H41.359Zm-7.871,1.919h7.871v6.717H33.488Zm7.871,15.353H33.488V33.555h7.871ZM23.369,33.555h7.871v6.717H23.369Zm0-8.636h7.871v6.717H23.369Zm-10.12,0H21.12v6.717H13.249Zm0,8.636H21.12v6.717H13.249ZM21.12,48.908H13.249V42.191H21.12Zm10.12,0H23.369V42.191h7.871Zm10.12,0H33.488V42.191h7.871Zm10.12,0H43.608V42.191h7.871Zm0-8.636H43.608V33.555h7.871Zm0-15.353v6.717H43.608V24.919Z" transform="translate(-2.364 5.782)"/>
</svg>
