<svg xmlns="http://www.w3.org/2000/svg" viewBox="0 0 60 60">
  <defs>
    <style>
      .cls-1 {
        fill: #fff570;
      }
    </style>
  </defs>
  <path id="Path_480" data-name="Path 480" class="cls-1" d="M58.828,57.656H53.191l-2.145-3.832V43.383a5.58,5.58,0,0,0-3.937-5.344L38.121,35.25V25.734a4.39,4.39,0,0,0-.715-2.414,6.505,6.505,0,0,0-1.535-12.633V5.871A5.882,5.882,0,0,0,30,0a1.175,1.175,0,0,0-1.172,1.172v9.352h-.012A3.8,3.8,0,0,0,26.1,11.59a3.718,3.718,0,0,0-1.16,2.672,3.819,3.819,0,0,0,3.75,3.879h.07A15.636,15.636,0,0,1,27.082,23.7a4.353,4.353,0,0,0-.492,2.027V35.8l-2.836,5.1L8.625,50.4a4.879,4.879,0,0,0-2.3,4.16v3.094H1.172a1.172,1.172,0,0,0,0,2.344H58.828a1.172,1.172,0,1,0,0-2.344ZM39.445,17.168a4.178,4.178,0,0,1-3.586,4.125V13.055A4.157,4.157,0,0,1,39.445,17.168ZM31.172,2.543a3.53,3.53,0,0,1,2.355,3.328V22.652a1.157,1.157,0,0,0,.82,1.113,2.065,2.065,0,0,1,1.441,1.969v9.211H28.934V25.734a2.032,2.032,0,0,1,.234-.949A17.927,17.927,0,0,0,31.2,16.57V2.543ZM27.68,15.363a1.465,1.465,0,0,1,1.055-2.484h.082V15.82H28.7A1.572,1.572,0,0,1,27.68,15.363Zm-9.949,37.2a1.172,1.172,0,0,0-1.57-.539l-5.191,2.555a.891.891,0,0,0-.223.141L8.672,56.379V54.563a2.554,2.554,0,0,1,1.207-2.18l15.375-9.668a1.148,1.148,0,0,0,.4-.422l2.777-5.016h6.328l-3.387,5.086a14.535,14.535,0,0,1-5.66,4.957l-2.414,1.2a1.174,1.174,0,0,0,1.031,2.109l2.426-1.2a16.7,16.7,0,0,0,6.574-5.766l.926-1.383,9.574,3.539V56.649a3.553,3.553,0,0,0,.152,1.008H10.828l1.289-1.031,5.074-2.5A1.172,1.172,0,0,0,17.73,52.559Zm29.449,5.1a1.015,1.015,0,0,1-1.008-1.008V45a1.18,1.18,0,0,0-.762-1.1l-9.82-3.621,1.277-1.91.586-.867,8.977,2.789a3.231,3.231,0,0,1,2.285,3.105V54.141a1.11,1.11,0,0,0,.152.574l1.652,2.953H47.18Z"/>
</svg>
