<svg id="smartphone" xmlns="http://www.w3.org/2000/svg" viewBox="0 0 54.999 60">
  <defs>
    <style>
      .cls-1 {
        fill: #70a9ff;
      }
    </style>
  </defs>
  <path id="Path_419" data-name="Path 419" class="cls-1" d="M34.471,30.995a.984.984,0,0,0-.969,1V46H4.439V8H33.5V22a.969.969,0,1,0,1.938,0V4.4A4.344,4.344,0,0,0,31.171,0H6.768A4.343,4.343,0,0,0,2.5,4.4V55.594A4.344,4.344,0,0,0,6.768,60h24.4A4.343,4.343,0,0,0,35.439,55.6V32A.983.983,0,0,0,34.471,30.995ZM6.768,2h24.4A2.371,2.371,0,0,1,33.5,4.4V6H4.438V4.4A2.373,2.373,0,0,1,6.768,2Zm24.4,56H6.768a2.371,2.371,0,0,1-2.33-2.4V48H33.5v7.6A2.371,2.371,0,0,1,31.171,58Z" transform="translate(-2.501)"/>
  <path id="Path_420" data-name="Path 420" class="cls-1" d="M19.376,49a3.875,3.875,0,1,0,3.875,3.875A3.879,3.879,0,0,0,19.376,49Zm0,5.813a1.938,1.938,0,1,1,1.938-1.938A1.94,1.94,0,0,1,19.376,54.813Z" transform="translate(-2.432 0.343)"/>
  <path id="Path_421" data-name="Path 421" class="cls-1" d="M15.47,4.938h3.875a.969.969,0,1,0,0-1.938H15.47a.969.969,0,0,0,0,1.938Z" transform="translate(-2.455 -0.094)"/>
  <path id="Path_422" data-name="Path 422" class="cls-1" d="M22.47,4.938h.969a.969.969,0,0,0,0-1.938H22.47a.969.969,0,0,0,0,1.938Z" transform="translate(-2.467 -0.094)"/>
  <path id="Path_423" data-name="Path 423" class="cls-1" d="M56.178,26.964a.97.97,0,0,0,0-.74.989.989,0,0,0-.21-.317L44.343,14.284a.969.969,0,0,0-1.37,1.37l9.972,9.972H18.47a.969.969,0,0,0,0,1.938H52.945l-9.972,9.972a.969.969,0,1,0,1.37,1.37L55.967,27.28A.975.975,0,0,0,56.178,26.964Z" transform="translate(-1.252 0.334)"/>
</svg>
