<svg xmlns="http://www.w3.org/2000/svg" viewBox="0 0 61.013 59.476">
  <defs>
    <style>
      .cls-1 {
        fill: #2a303c;
        stroke: #2a303c;
      }
    </style>
  </defs>
  <path id="Subtraction_13" data-name="Subtraction 13" class="cls-1" d="M153.443,110.246h0l-2.4,0A30,30,0,0,1,174.2,81.4a15.6,15.6,0,0,1,0-28.041,15.456,15.456,0,0,1,6.834-1.585A15.6,15.6,0,0,1,187.884,81.4a30,30,0,0,1,23.16,28.846l-2.4,0a27.5,27.5,0,0,0-15.456-24.418,16.74,16.74,0,0,1,4.6,10.494,6.023,6.023,0,0,1,4.857,5.88V107h-2.4v-4.8a3.6,3.6,0,1,0-7.2,0V107h-2.4v-4.8a6.042,6.042,0,0,1,4.749-5.863,14.449,14.449,0,0,0-13.4-13.306c-.319-.021-.643-.032-.961-.032a14.412,14.412,0,0,0-14.34,13.436,3.6,3.6,0,1,1-2.4-.03A16.756,16.756,0,0,1,168.9,85.82a27.507,27.507,0,0,0-15.456,24.423Zm12-11.646a1.2,1.2,0,1,0,1.2,1.2A1.2,1.2,0,0,0,165.443,98.6Zm15.6-44.4a13.2,13.2,0,1,0,13.2,13.2A13.215,13.215,0,0,0,181.044,54.2Z" transform="translate(-150.538 -51.27)"/>
</svg>
