<svg xmlns="http://www.w3.org/2000/svg" viewBox="0 0 60 54.644">
  <defs>
    <style>
      .cls-1 {
        fill: #288428;
      }
    </style>
  </defs>
  <path id="users" class="cls-1" d="M58.555,48.064,48.32,42.947ZM14.611,56.5v2.4H1.754c0-4.25,1.269-6.387,3.365-7.532l7.127-4.471a4.439,4.439,0,0,0,2.315-3.9V39.145l-.341-.318a14.272,14.272,0,0,1-3.716-6.38l-.1-.424-.366-.236a1.7,1.7,0,0,1-.788-1.429v-3.7A1.873,1.873,0,0,1,9.973,25.4l.353-.318,0-5.764c.019-.307.578-7.562,9.645-7.562A11.155,11.155,0,0,1,26.4,13.516v5.069A4.273,4.273,0,0,0,25.326,21.4v4.286a4.308,4.308,0,0,0,.108.957c.029.124.087.238.126.358a4.232,4.232,0,0,0,.189.536l0,.005a4.292,4.292,0,0,0,1.178,1.475c.005.02.012.039.017.058.064.245.132.49.2.729l.087.28c.015.049.033.1.049.149.037.116.074.23.112.344.064.188.132.381.21.593.033.088.07.167.1.254.088.224.176.44.268.655.023.051.042.107.064.158l.06.135c.028.062.057.118.085.179.105.229.208.451.315.665.017.034.033.072.05.106.068.134.135.26.2.389.116.221.229.429.343.63.056.1.11.195.165.288.154.264.3.506.444.731.031.048.061.1.091.145.259.4.484.728.671.981l.134.182c.024.031.056.076.076.1v3.545A2.831,2.831,0,0,1,29.206,42.8l-2.835,1.546-.494-.044-.2.423-6.028,3.288A9.666,9.666,0,0,0,14.611,56.5Zm47.143,2.4h-45V56.5a7.517,7.517,0,0,1,3.92-6.6l9.558-5.214a4.975,4.975,0,0,0,2.593-4.368v-4.3h0l-.208-.249-.041-.048s-.069-.084-.177-.225l-.02-.026c-.057-.074-.123-.163-.2-.269l0-.005c-.16-.222-.36-.51-.583-.857L31.58,34.3c-.1-.164-.216-.343-.33-.533l-.026-.043c-.242-.406-.5-.866-.755-1.375a0,0,0,0,1,0,0c-.136-.273-.272-.56-.405-.859h0c-.018-.042-.037-.082-.056-.124h0c-.059-.134-.118-.274-.178-.419-.021-.053-.043-.107-.064-.161-.056-.14-.113-.282-.173-.444-.109-.291-.212-.6-.311-.91l-.059-.191c-.006-.021-.014-.043-.02-.065-.1-.339-.2-.685-.279-1.04l-.1-.424-.365-.236a2.136,2.136,0,0,1-.992-1.8V21.4a2.115,2.115,0,0,1,.718-1.58l.354-.318V12.446l-.029-.023A7.416,7.416,0,0,1,30.25,7.307c1.775-2.026,4.805-3.052,9-3.052s7.208,1.019,8.985,3.03a7.541,7.541,0,0,1,1.739,5.4l-.01,6.813.354.319A2.111,2.111,0,0,1,51.04,21.4v4.286a2.131,2.131,0,0,1-1.524,2.035l-.534.164-.171.53a22.43,22.43,0,0,1-3.036,6.121,14.1,14.1,0,0,1-.9,1.156l-.267.3v4.42a4.948,4.948,0,0,0,2.749,4.45L57.6,49.98a7.481,7.481,0,0,1,4.158,6.729Z" transform="translate(-1.754 -4.253)"/>
</svg>
