<svg xmlns="http://www.w3.org/2000/svg" viewBox="0 0 60 49">
  <defs>
    <style>
      .cls-1 {
        fill: #676767;
      }
    </style>
  </defs>
  <path id="folder" class="cls-1" d="M57.49,21.5H54V15.232A2.735,2.735,0,0,0,51.268,12.5H26.515l-5-7H2.732A2.736,2.736,0,0,0,0,8.232V51.919H.006A2.553,2.553,0,0,0,2.565,54.5H47.324a2.539,2.539,0,0,0,2.45-1.813L60,24.649v-.177C60,22.75,58.944,21.5,57.49,21.5ZM2,8.232A.733.733,0,0,1,2.732,7.5H20.485l5,7H51.267a.732.732,0,0,1,.732.732V21.5H12.731a2.564,2.564,0,0,0-2.449,1.812L2,45.9ZM47.869,52.083a.566.566,0,0,1-.545.417H2.565a.552.552,0,0,1-.448-.222.542.542,0,0,1-.123-.408L12.185,23.917a.566.566,0,0,1,.545-.417H57.49c.38,0,.477.546.5.819Z" transform="translate(0 -5.5)"/>
</svg>
